<svg width="59" height="51" viewBox="0 0 59 51" fill="none" xmlns="http://www.w3.org/2000/svg">
<g clipPath="url(#clip0_6_437)">
<path d="M53.1814 0.100922H4.8542C2.18614 0.100922 0.0214844 2.20053 0.0214844 4.78842V36.0384C0.0214844 38.6263 2.18614 40.7259 4.8542 40.7259H24.1851L22.5742 45.4134H15.3251C13.986 45.4134 12.9087 46.4583 12.9087 47.7572C12.9087 49.056 13.986 50.1009 15.3251 50.1009H42.7105C44.0496 50.1009 45.1269 49.056 45.1269 47.7572C45.1269 46.4583 44.0496 45.4134 42.7105 45.4134H35.4614L33.8505 40.7259H53.1814C55.8495 40.7259 58.0141 38.6263 58.0141 36.0384V4.78842C58.0141 2.20053 55.8495 0.100922 53.1814 0.100922ZM51.5705 34.4759H6.46511V6.35092H51.5705V34.4759Z" fill="#1CC38B"/>
</g>
<defs>
<clipPath id="clip0_6_437">
<rect width="58" height="50" fill="white" transform="translate(0.0175781 0.100922)"/>
</clipPath>
</defs>
</svg>
