<svg width="19" height="20" viewBox="0 0 19 20" fill="none" xmlns="http://www.w3.org/2000/svg">
<path d="M18.0833 17.5035H1.58325V9.8368L9.83325 1.69096L18.0833 9.8368V17.5035Z" fill="#E8EAF6"/>
<path d="M16.7083 8.87846L14.4166 6.48263V3.12846H16.7083V8.87846ZM1.58325 17.5035H18.0833V19.8993H1.58325V17.5035Z" fill="#C5CAE9"/>
<path d="M9.83329 0.876373L0.666626 9.78887L1.58329 10.843L9.83329 2.84096L18.0833 10.843L19 9.78887L9.83329 0.876373Z" fill="#B71C1C"/>
<path d="M7.08325 12.2326H12.5833V19.8993H7.08325V12.2326Z" fill="#D84315"/>
<path d="M8.45825 6.96179H11.2083V9.83679H8.45825V6.96179Z" fill="#01579B"/>
<path d="M11.4374 15.8264C11.2999 15.8264 11.2083 15.9222 11.2083 16.066V17.0243C11.2083 17.1681 11.2999 17.2639 11.4374 17.2639C11.5749 17.2639 11.6666 17.1681 11.6666 17.0243V16.066C11.6666 15.9222 11.5749 15.8264 11.4374 15.8264Z" fill="#FF8A65"/>
</svg>
