<svg width="19" height="19" viewBox="0 0 19 19" fill="none" xmlns="http://www.w3.org/2000/svg">
<g clip-path="url(#clip0_6_386)">
<path d="M14.6616 0.512085H5.09912C2.76917 0.512085 0.880371 2.40088 0.880371 4.73083V14.2933C0.880371 16.6233 2.76917 18.5121 5.09912 18.5121H14.6616C16.9916 18.5121 18.8804 16.6233 18.8804 14.2933V4.73083C18.8804 2.40088 16.9916 0.512085 14.6616 0.512085Z" fill="url(#paint0_radial_6_386)"/>
<path d="M14.6616 0.512085H5.09912C2.76917 0.512085 0.880371 2.40088 0.880371 4.73083V14.2933C0.880371 16.6233 2.76917 18.5121 5.09912 18.5121H14.6616C16.9916 18.5121 18.8804 16.6233 18.8804 14.2933V4.73083C18.8804 2.40088 16.9916 0.512085 14.6616 0.512085Z" fill="url(#paint1_radial_6_386)"/>
<path d="M9.881 2.48083C7.97146 2.48083 7.73176 2.4892 6.98181 2.5233C6.23326 2.55762 5.7223 2.67609 5.27525 2.84998C4.81274 3.02955 4.42046 3.26981 4.02967 3.66075C3.63852 4.05162 3.39826 4.44389 3.21812 4.90619C3.04375 5.35338 2.92513 5.86455 2.89145 6.61275C2.85791 7.36277 2.84912 7.60254 2.84912 9.51216C2.84912 11.4218 2.85756 11.6607 2.89159 12.4106C2.92604 13.1592 3.04452 13.6702 3.21826 14.1172C3.39798 14.5797 3.63824 14.972 4.02918 15.3628C4.4199 15.7539 4.81218 15.9948 5.27434 16.1743C5.72174 16.3482 6.23277 16.4667 6.98118 16.501C7.7312 16.5351 7.97068 16.5435 9.88016 16.5435C11.7899 16.5435 12.0288 16.5351 12.7788 16.501C13.5273 16.4667 14.0389 16.3482 14.4863 16.1743C14.9486 15.9948 15.3403 15.7539 15.7309 15.3628C16.1221 14.972 16.3623 14.5797 16.5425 14.1174C16.7153 13.6702 16.834 13.1591 16.8692 12.4108C16.9028 11.6608 16.9116 11.4218 16.9116 9.51216C16.9116 7.60254 16.9028 7.36291 16.8692 6.61289C16.834 5.86434 16.7153 5.35345 16.5425 4.90641C16.3623 4.44389 16.1221 4.05162 15.7309 3.66075C15.3399 3.26967 14.9487 3.02941 14.4858 2.85005C14.0376 2.67609 13.5264 2.55755 12.7778 2.5233C12.0278 2.4892 11.789 2.48083 9.87882 2.48083H9.881ZM9.25023 3.74794C9.43747 3.74766 9.64637 3.74794 9.881 3.74794C11.7584 3.74794 11.9809 3.75469 12.7223 3.78837C13.4078 3.81973 13.7799 3.93426 14.0278 4.03052C14.3559 4.15793 14.5898 4.3103 14.8358 4.55646C15.0819 4.80255 15.2342 5.03691 15.3619 5.36505C15.4582 5.61255 15.5729 5.98465 15.6041 6.67019C15.6378 7.41143 15.6451 7.63404 15.6451 9.51054C15.6451 11.387 15.6378 11.6097 15.6041 12.3509C15.5727 13.0364 15.4582 13.4085 15.3619 13.6561C15.2345 13.9842 15.0819 14.2179 14.8358 14.4638C14.5897 14.7099 14.356 14.8622 14.0278 14.9897C13.7802 15.0864 13.4078 15.2006 12.7223 15.232C11.981 15.2657 11.7584 15.273 9.881 15.273C8.00352 15.273 7.78098 15.2657 7.03982 15.232C6.35427 15.2004 5.98218 15.0858 5.73411 14.9896C5.40604 14.8621 5.17161 14.7098 4.92552 14.4637C4.67943 14.2176 4.52713 13.9838 4.39937 13.6555C4.30311 13.408 4.18843 13.0359 4.15721 12.3503C4.12354 11.6091 4.11679 11.3865 4.11679 9.50878C4.11679 7.63116 4.12354 7.40967 4.15721 6.66844C4.18857 5.98289 4.30311 5.6108 4.39937 5.36294C4.52685 5.0348 4.67943 4.80044 4.92559 4.55435C5.17168 4.30826 5.40604 4.15589 5.73418 4.0282C5.98203 3.93152 6.35427 3.81726 7.03982 3.78576C7.68845 3.75644 7.93982 3.74766 9.25023 3.74618V3.74794ZM13.6343 4.91541C13.1685 4.91541 12.7905 5.29298 12.7905 5.75887C12.7905 6.22469 13.1685 6.60262 13.6343 6.60262C14.1001 6.60262 14.478 6.22469 14.478 5.75887C14.478 5.29305 14.1001 4.91512 13.6343 4.91512V4.91541ZM9.881 5.90126C7.88694 5.90126 6.27018 7.51802 6.27018 9.51216C6.27018 11.5063 7.88694 13.1223 9.881 13.1223C11.8751 13.1223 13.4913 11.5063 13.4913 9.51216C13.4913 7.51809 11.875 5.90126 9.88086 5.90126H9.881ZM9.881 7.16836C11.1754 7.16836 12.2248 8.21763 12.2248 9.51216C12.2248 10.8065 11.1754 11.856 9.881 11.856C8.58655 11.856 7.53728 10.8065 7.53728 9.51216C7.53728 8.21763 8.58655 7.16836 9.881 7.16836Z" fill="white"/>
</g>
<defs>
<radialGradient id="paint0_radial_6_386" cx="0" cy="0" r="1" gradientUnits="userSpaceOnUse" gradientTransform="translate(5.66162 19.8984) rotate(-90) scale(17.8393 16.592)">
<stop stop-color="#FFDD55"/>
<stop offset="0.1" stop-color="#FFDD55"/>
<stop offset="0.5" stop-color="#FF543E"/>
<stop offset="1" stop-color="#C837AB"/>
</radialGradient>
<radialGradient id="paint1_radial_6_386" cx="0" cy="0" r="1" gradientUnits="userSpaceOnUse" gradientTransform="translate(-2.1347 1.80872) rotate(78.681) scale(7.97428 32.8702)">
<stop stop-color="#3771C8"/>
<stop offset="0.128" stop-color="#3771C8"/>
<stop offset="1" stop-color="#6600FF" stop-opacity="0"/>
</radialGradient>
<clipPath id="clip0_6_386">
<rect width="18" height="18" fill="white" transform="translate(0.880371 0.512085)"/>
</clipPath>
</defs>
</svg>
