<svg width="31" height="51" viewBox="0 0 31 51" fill="none" xmlns="http://www.w3.org/2000/svg">
<path d="M24.4864 0.367523H6.25151C4.7402 0.367523 3.29078 0.967889 2.22213 2.03655C1.15347 3.10521 0.553101 4.55462 0.553101 6.06593V44.8151C0.553101 46.3264 1.15347 47.7758 2.22213 48.8445C3.29078 49.9132 4.7402 50.5135 6.25151 50.5135H24.4864C25.9977 50.5135 27.4471 49.9132 28.5158 48.8445C29.5845 47.7758 30.1848 46.3264 30.1848 44.8151V6.06593C30.1848 4.55462 29.5845 3.10521 28.5158 2.03655C27.4471 0.967889 25.9977 0.367523 24.4864 0.367523ZM15.369 48.2342C13.4771 48.2342 11.9499 46.707 11.9499 44.8151C11.9499 42.9232 13.4771 41.3961 15.369 41.3961C17.2608 41.3961 18.788 42.9232 18.788 44.8151C18.788 46.707 17.2608 48.2342 15.369 48.2342ZM25.6261 39.1167H5.11183V7.20561H25.6261V39.1167Z" fill="#1CC38B"/>
</svg>
