<svg width="20" height="20" viewBox="0 0 20 20" fill="none" xmlns="http://www.w3.org/2000/svg">
<g clipPath="url(#clip0_6_376)">
<path d="M17.5991 1.01971H2.16162C1.81135 1.01614 1.47398 1.15167 1.22352 1.39656C0.973068 1.64145 0.82999 1.9757 0.825684 2.32596V17.8258C0.830769 18.1755 0.97419 18.509 1.22456 18.7533C1.47493 18.9975 1.81186 19.1327 2.16162 19.1291H17.5991C17.9494 19.1319 18.2866 18.9959 18.5369 18.7508C18.7872 18.5058 18.9304 18.1716 18.9351 17.8213V2.3215C18.9288 1.97227 18.785 1.63962 18.5348 1.39586C18.2847 1.15209 17.9484 1.01691 17.5991 1.01971Z" fill="#0076B2"/>
<path d="M3.50648 7.80774H6.19468V16.4572H3.50648V7.80774ZM4.85132 3.50305C5.15964 3.50305 5.46104 3.5945 5.71738 3.76583C5.97372 3.93715 6.17349 4.18066 6.29141 4.46554C6.40934 4.75042 6.44011 5.06388 6.37986 5.36626C6.3196 5.66864 6.17101 5.94635 5.95289 6.16426C5.73476 6.38218 5.45691 6.5305 5.15447 6.59047C4.85204 6.65044 4.53861 6.61937 4.25384 6.50117C3.96907 6.38298 3.72576 6.18298 3.55467 5.92647C3.38359 5.66997 3.29243 5.36848 3.29273 5.06016C3.29312 4.64705 3.4575 4.251 3.74975 3.95903C4.042 3.66706 4.43821 3.50305 4.85132 3.50305ZM7.88093 7.80774H10.4578V8.99524H10.4934C10.8526 8.3154 11.7284 7.59844 13.0362 7.59844C15.7585 7.5925 16.2632 9.38415 16.2632 11.7072V16.4572H13.575V12.249C13.575 11.247 13.5572 9.95711 12.1782 9.95711C10.7992 9.95711 10.5647 11.0496 10.5647 12.1837V16.4572H7.88093V7.80774Z" fill="white"/>
</g>
<defs>
<clipPath id="clip0_6_376">
<rect width="19" height="19" fill="white" transform="translate(0.380371 0.574387)"/>
</clipPath>
</defs>
</svg>
