<svg width="48" height="48" viewBox="0 0 48 48" fill="none" xmlns="http://www.w3.org/2000/svg">
<path d="M2.5721 36.8197L2.5721 25.0697C2.5721 24.4854 2.80422 23.925 3.21738 23.5118C3.63055 23.0987 4.19092 22.8666 4.77522 22.8666C5.35953 22.8666 5.9199 23.0987 6.33307 23.5118C6.74624 23.925 6.97835 24.4854 6.97835 25.0697L6.97835 31.4955L20.8415 17.6305C21.0462 17.4251 21.2894 17.2621 21.5572 17.1509C21.825 17.0397 22.1121 16.9825 22.4021 16.9825C22.692 16.9825 22.9791 17.0397 23.2469 17.1509C23.5147 17.2621 23.7579 17.4251 23.9626 17.6305L29.744 23.4173L41.404 11.761C41.8179 11.3471 42.3792 11.1146 42.9646 11.1146C43.5499 11.1146 44.1112 11.3471 44.5251 11.761C44.939 12.1748 45.1715 12.7362 45.1715 13.3215C45.1715 13.9068 44.939 14.4682 44.5251 14.8821L31.3064 28.1008C31.1017 28.3062 30.8585 28.4692 30.5907 28.5804C30.3229 28.6916 30.0358 28.7488 29.7458 28.7488C29.4558 28.7488 29.1687 28.6916 28.9009 28.5804C28.6332 28.4692 28.3899 28.3062 28.1853 28.1008L22.4002 22.3158L10.0994 34.6165L16.5252 34.6165C17.1095 34.6165 17.6699 34.8487 18.0831 35.2618C18.4962 35.675 18.7283 36.2354 18.7283 36.8197C18.7283 37.404 18.4962 37.9644 18.0831 38.3775C17.6699 38.7907 17.1095 39.0228 16.5252 39.0228L4.77522 39.0228C4.19092 39.0228 3.63055 38.7907 3.21738 38.3775C2.80422 37.9644 2.5721 37.404 2.5721 36.8197Z" fill="#B71C1C"/>
</svg>
